<svg width="50" height="50" viewBox="0 0 50 50" fill="none" xmlns="http://www.w3.org/2000/svg">
<path d="M45.9689 20.2834C44.8666 15.6199 42.94 10.3006 39.3763 6.94512C39.2717 6.84577 39.1638 6.75765 39.054 6.67557C41.067 4.68853 37.8739 1.57925 35.6882 3.51359C31.4454 7.27169 26.5054 10.0319 21.3365 12.3032C21.1413 12.3637 20.9512 12.438 20.7663 12.5235C16.3499 12.3386 10.9409 11.3961 7.86095 8.22979C5.7806 6.09069 2.51581 9.36154 4.59442 11.4972C7.88773 14.8846 12.997 16.3818 17.8489 16.9235C17.8437 17.3684 17.9024 17.8168 18.0441 18.2583C19.9387 24.1633 24.0113 29.9386 30.0562 32.0242C30.4527 32.1624 30.8562 32.2246 31.2562 32.235C31.2562 37.1335 31.2562 42.0302 31.2562 46.927C31.2562 51.0237 37.6104 51.0237 37.6104 46.927C37.6104 40.7456 37.6104 34.5624 37.6104 28.3827C41.7089 26.8 46.8648 24.0639 45.9689 20.2834ZM33.7046 23.0402C33.3746 22.8466 33.0247 22.6799 32.6523 22.552C33.01 22.7481 32.9219 22.7041 32.3836 22.4199C32.1037 22.2747 31.9888 22.2281 31.9447 22.2186C31.9145 22.1788 31.8195 22.0838 31.5655 21.8687C30.9901 21.384 30.2998 20.6678 29.9249 20.1693C28.7871 18.6574 27.9534 17.0307 27.5309 15.7166C27.4126 15.3529 27.2579 15.0099 27.0774 14.6868C29.5413 13.4471 31.9188 12.0613 34.1832 10.4985C34.3422 10.8224 34.5694 11.1386 34.8856 11.4358C37.1966 13.6129 38.4977 16.9434 39.3633 20.0855C37.6933 21.4488 35.7651 22.3317 33.7046 23.0402Z" fill="white"/>
<path d="M19.3737 10.8717C22.3758 10.8717 24.8095 8.43799 24.8095 5.43585C24.8095 2.43371 22.3758 0 19.3737 0C16.3715 0 13.9378 2.43371 13.9378 5.43585C13.9378 8.43799 16.3715 10.8717 19.3737 10.8717Z" fill="white"/>
</svg>
