<svg width="50" height="50" viewBox="0 0 50 50" fill="none" xmlns="http://www.w3.org/2000/svg">
<g clip-path="url(#clip0_2_1324)">
<path d="M32.3202 7.53835C32.3202 7.53835 35.6232 13.3636 35.6232 10.1423C35.6232 6.92256 33.0104 4.31215 29.7915 4.31215C26.5717 4.31215 23.9597 6.92256 23.9597 10.1423C23.9605 13.3636 32.3202 7.53835 32.3202 7.53835Z" fill="white"/>
<path d="M36.485 3.25778C36.7997 3.08138 37.108 2.9155 37.384 2.79817C37.6526 2.68003 37.9277 2.62743 37.9561 2.69136C37.9722 2.71725 37.8881 2.75366 37.8088 2.748C37.7287 2.74314 37.6971 2.72777 37.706 2.76823C37.706 2.79574 37.7473 2.90012 37.7602 2.95272L37.8055 3.06762C37.7966 3.05791 37.825 3.12831 37.8314 3.1534L37.9026 3.3743L38.5249 5.34708C38.9926 6.72754 39.6359 8.27712 40.878 9.51678C41.4962 10.1245 42.2674 10.6156 43.0879 10.8511C43.9084 11.0866 44.7491 11.0906 45.5106 10.8657C44.8373 10.4384 44.2604 10.0233 43.8153 9.54591C43.3662 9.07578 43.0345 8.58056 42.761 8.04165C42.214 6.97191 41.8709 5.73225 41.4193 4.37607C41.1871 3.69797 40.9403 2.98751 40.5737 2.24954L40.4281 1.97199L40.3399 1.81016L40.2655 1.68393C40.1093 1.41447 39.9539 1.2146 39.7136 0.970231C39.4797 0.739615 39.1545 0.492815 38.7369 0.358491C38.321 0.220931 37.8614 0.23145 37.5215 0.326933C37.1703 0.418371 36.9163 0.573733 36.7026 0.72424C36.4906 0.877984 36.315 1.03416 36.1686 1.19842C35.8668 1.52209 35.6426 1.85224 35.4387 2.18076C35.238 2.51253 35.0592 2.83863 34.8949 3.17282C34.8108 3.3387 34.7258 3.50053 34.6311 3.65509C34.5429 3.82097 34.4507 3.96905 34.3058 4.10823C34.7226 4.14626 35.1207 3.94558 35.4751 3.79022C35.8368 3.62272 36.1637 3.43094 36.485 3.25778Z" fill="white"/>
<path d="M48.2714 42.5693C43.9504 40.2883 39.5542 38.1674 35.0543 36.2917C34.64 38.5987 34.021 40.8733 33.3615 43.0492C37.2415 44.7039 41.0382 46.5456 44.7879 48.5281C48.7205 50.6029 52.2073 44.6473 48.2714 42.5693Z" fill="white"/>
<path d="M32.1292 23.0276C32.0709 22.9273 32.011 22.8359 31.9471 22.7461C31.7343 20.3428 30.4129 18.247 27.775 17.522C26.6794 17.221 25.4187 17.3035 24.2567 17.6968C24.1903 17.6482 24.1272 17.5997 24.0552 17.556C18.9913 14.3686 14.1355 10.9304 9.5725 7.05364C6.20389 4.19238 1.29783 9.04907 4.69396 11.9338C9.61134 16.1108 14.8233 19.8743 20.2723 23.3222C19.8507 25.6486 19.3021 27.9475 18.6831 30.2277C13.6629 28.6579 8.78355 26.5354 3.45187 26.3469C1.62151 26.283 -0.0648239 27.9644 0.00152882 29.7989C0.172266 34.518 1.66116 38.818 3.693 43.0387C5.62209 47.0481 11.5712 43.546 9.6518 39.5568C8.75523 37.6908 7.99056 35.7844 7.49372 33.8067C12.2646 34.8878 16.8454 37.2174 21.6277 38.1245C21.6778 38.1342 21.7248 38.1391 21.7741 38.1439C23.1165 38.678 24.6418 39.2913 24.9356 39.3909C25.6007 37.1794 26.1704 34.9436 26.4536 32.7151C26.7538 32.4255 27.0823 32.1924 27.4206 32.0055C27.2595 36.5782 25.625 41.2277 24.2599 45.5066C22.9045 49.7597 29.5665 51.5634 30.9146 47.3419C33.3591 39.6854 36.4737 30.5417 32.1292 23.0276Z" fill="white"/>
</g>
<defs>
<clipPath id="clip0_2_1324">
<rect width="50" height="50" fill="white"/>
</clipPath>
</defs>
</svg>
