<svg width="50" height="50" viewBox="0 0 50 50" fill="none" xmlns="http://www.w3.org/2000/svg">
<g clip-path="url(#clip0_2_1331)">
<path d="M38.5009 25.8879C38.2649 19.1701 36.2789 12.6565 32.2626 7.2208C31.9019 6.73372 31.491 6.30271 31.0432 5.93364C29.6715 3.81208 27.9375 1.95332 25.6837 0.743994C22.3327 -1.05368 18.6027 0.522215 17.7155 4.22886C16.8853 7.70034 17.513 11.966 17.4712 15.4944C17.4452 17.8135 17.4184 20.1342 17.3925 22.4533C19.6136 21.8984 21.9704 21.6557 24.461 21.7511C24.4878 19.4053 24.5137 17.0611 24.5413 14.7169C26.2076 17.4771 27.3006 20.4338 27.7182 23.6392C21.5243 22.5462 15.2952 23.3078 9.99593 27.1316C7.07179 29.2406 9.88714 34.1423 12.8448 32.0082C17.7883 28.4405 23.2667 28.1819 29.0255 29.7034C29.3276 29.7837 29.6088 29.8021 29.8799 29.7954C32.9949 32.1831 38.6783 30.906 38.5009 25.8879Z" fill="white"/>
<path d="M17.2912 31.4349C17.2334 36.484 17.1765 41.5355 17.118 46.5862C17.0669 51.1398 24.127 51.1373 24.1781 46.5862L24.0517 30.2005C21.5996 30.121 19.3659 30.5353 17.2912 31.4349Z" fill="white"/>
<path d="M35.5927 31.8784C32.4718 31.8784 29.9444 34.4076 29.9444 37.525C29.9444 40.645 32.4727 43.1741 35.5927 43.1741C38.7101 43.1741 41.2376 40.645 41.2376 37.525C41.2376 34.4076 38.7101 31.8784 35.5927 31.8784Z" fill="white"/>
</g>
<defs>
<clipPath id="clip0_2_1331">
<rect width="50" height="50" fill="white"/>
</clipPath>
</defs>
</svg>
