<svg width="50" height="50" viewBox="0 0 50 50" fill="none" xmlns="http://www.w3.org/2000/svg">
<g clip-path="url(#clip0_2_1337)">
<path d="M44.3795 44.4002C47.4837 44.4002 50 41.8838 50 38.7797C50 35.6756 47.4837 33.1592 44.3795 33.1592C41.2754 33.1592 38.759 35.6756 38.759 38.7797C38.759 41.8838 41.2754 44.4002 44.3795 44.4002Z" fill="white"/>
<path d="M32.0872 32.8435H18.4901C17.9398 32.8435 17.4101 32.9262 16.9056 33.0719V8.99729C16.9056 7.11959 15.384 5.59801 13.5072 5.59801C11.6295 5.59801 10.1079 7.11959 10.1079 8.99729V38.9074C7.61601 38.9074 5.1223 38.9074 2.6304 38.9074C-0.876799 38.9074 -0.876799 44.3462 2.6304 44.3462C7.66457 44.3462 12.6987 44.3462 17.7329 44.3462C17.9811 44.3795 18.2338 44.402 18.491 44.402H32.089C35.2788 44.402 37.866 41.8147 37.866 38.6241C37.8633 35.4325 35.2761 32.8435 32.0872 32.8435Z" fill="white"/>
</g>
<defs>
<clipPath id="clip0_2_1337">
<rect width="50" height="50" fill="white"/>
</clipPath>
</defs>
</svg>
