<svg width="50" height="50" viewBox="0 0 50 50" fill="none" xmlns="http://www.w3.org/2000/svg">
<path d="M45.8641 21.2199C48.1483 21.2199 50 19.3682 50 17.084C50 14.7998 48.1483 12.9482 45.8641 12.9482C43.58 12.9482 41.7283 14.7998 41.7283 17.084C41.7283 19.3682 43.58 21.2199 45.8641 21.2199Z" fill="white"/>
<path d="M9.49227 33.7253C13.7371 31.6497 17.9819 29.5761 22.2277 27.5006C23.6131 29.5639 26.0948 29.7828 28.1683 28.717C30.6928 27.4202 33.2204 26.1213 35.7428 24.8244C35.8487 27.1962 35.9505 29.57 36.0533 31.9418C36.1846 34.9183 40.7989 34.7177 40.6676 31.7413C40.5281 28.5389 40.3907 25.3364 40.2502 22.135C41.3201 20.7303 41.3496 18.5295 40.4212 17.0922C39.044 14.9657 36.5307 14.7316 34.4307 15.8086C30.7743 17.6877 27.1178 19.5658 23.4634 21.4439C23.0471 21.6576 22.702 21.9528 22.4211 22.2979C17.2774 24.8122 12.1348 27.3265 6.99018 29.8418C4.31911 31.1458 6.84461 35.018 9.49227 33.7253Z" fill="white"/>
<path d="M49.3526 34.3777H0V37.0519H49.3526V34.3777Z" fill="white"/>
</svg>
