<svg width="35" height="35" viewBox="0 0 35 35" fill="none" xmlns="http://www.w3.org/2000/svg">
<g clip-path="url(#clip0_2_1829)">
<path d="M21.1253 5.7502C22.7132 5.7502 24.0004 4.46297 24.0004 2.8751C24.0004 1.28723 22.7132 0 21.1253 0C19.5374 0 18.2502 1.28723 18.2502 2.8751C18.2502 4.46297 19.5374 5.7502 21.1253 5.7502Z" fill="white"/>
<path d="M12.2049 8.50684C11.5647 8.79128 10.9499 9.08574 10.3692 9.37726C8.61011 10.2606 10.156 12.8931 11.9104 12.0127C12.0135 11.9614 12.1183 11.9143 12.2214 11.8643C12.1695 10.7536 12.1483 9.63108 12.2049 8.50684Z" fill="white"/>
<path d="M25.1028 8.50459C25.1958 7.97692 24.9903 7.43629 24.323 7.15008C21.7878 6.06117 18.8867 6.29614 16.1247 7.06822C16.1253 7.18011 16.12 7.29259 16.1023 7.40626C15.9586 8.33204 15.9286 9.13002 15.9469 10.0835L21.1258 9.89915C21.1258 9.89915 21.8514 10.09 21.3107 10.3479C20.5493 10.3815 15.524 10.6235 15.524 10.6235C15.4622 9.34556 15.4581 8.06526 15.6524 6.81145C15.9504 4.88627 13.0099 4.05943 12.709 5.99992C12.3191 8.51224 12.5076 11.0034 12.6548 13.5275C12.7184 14.6341 13.9174 15.4927 14.951 14.8455C15.696 14.3785 16.4139 13.8543 17.0982 13.2895L17.0958 14.276L17.0746 24.9148V33.354C17.0746 34.2627 17.7389 35 18.6736 35C19.607 35 20.3655 34.2627 20.3655 33.354V21.2918H21.859C21.859 24.118 21.859 30.5684 21.859 33.3952C21.859 35.3634 24.912 35.3634 24.912 33.3952C24.912 30.5684 24.912 27.7422 24.912 24.9172C25.5344 12.1718 25.5368 12.2101 25.1028 8.50459Z" fill="white"/>
</g>
<defs>
<clipPath id="clip0_2_1829">
<rect width="35" height="35" fill="white"/>
</clipPath>
</defs>
</svg>
